<?xml version="1.0" encoding="UTF-8"?>
<!-- Created with Inkscape (http://www.inkscape.org/) -->
<svg width="89.709mm" height="89.762mm" version="1.1" viewBox="0 0 89.709 89.762" xmlns="http://www.w3.org/2000/svg">
 <g transform="translate(-38.584 -92.264)">
  <path d="m83.439 92.264a44.855 44.881 0 0 0-44.855 44.881 44.855 44.881 0 0 0 44.855 44.882 44.855 44.881 0 0 0 44.855-44.882 44.855 44.881 0 0 0-44.855-44.881zm19.008 18.623 8.3478 8.5168-18.732 19.112 18.678 19.057-8.3483 8.5168-18.678-19.057-18.645 19.023-8.3478-8.5168 18.645-19.023-18.7-19.078 8.3483-8.5173 18.7 19.078 18.732-19.111z" fill="#fff" stroke-width=".26288"/>
  <path transform="rotate(134.25)" d="m8.9485-152.28 27.771-9e-5 -0.36478 27.952 7.9955 0.10397 0.36613-28.056 28.608-1.4e-4 -1.59e-4 -7.9965-28.503 4e-5 0.36956-28.318-7.9955-0.10397-0.37091 28.422-27.876 1.9e-4z" display="none" fill="#f00" stroke-width=".34932"/>
 </g>
</svg>
